<?xml version="1.0" standalone="no"?>
<!DOCTYPE svg PUBLIC "-//W3C//DTD SVG 20010904//EN"
 "http://www.w3.org/TR/2001/REC-SVG-20010904/DTD/svg10.dtd">
<svg version="1.0" xmlns="http://www.w3.org/2000/svg"
 width="270.000000pt" height="270.000000pt" viewBox="0 0 270.000000 270.000000"
 preserveAspectRatio="xMidYMid meet">

<g transform="translate(0.000000,270.000000) scale(0.100000,-0.100000)"
fill="#000000" stroke="none">
<path d="M0 1350 l0 -1350 1350 0 1350 0 0 1350 0 1350 -1350 0 -1350 0 0
-1350z m1380 383 c0 -10 -20 -40 -20 -31 0 3 -3 13 -6 22 -4 11 -1 16 10 16 9
0 16 -3 16 -7z m50 -34 c0 -12 5 -16 15 -13 8 3 25 -6 39 -21 25 -26 25 -28 9
-59 -9 -17 -18 -25 -20 -18 -3 6 -11 12 -19 12 -8 0 -14 7 -14 15 0 8 4 15 9
15 5 0 8 10 8 23 0 16 -6 22 -24 23 -18 2 -23 -2 -18 -13 4 -13 3 -14 -10 -3
-12 10 -13 16 -4 26 6 8 9 20 6 28 -4 10 -1 13 9 9 7 -3 14 -14 14 -24z m-7
-126 c-9 -24 -22 -31 -44 -26 -16 5 -14 8 13 23 18 10 34 18 35 19 1 0 -1 -7
-4 -16z m-83 -43 c0 -5 -4 -10 -10 -10 -5 0 -10 5 -10 10 0 6 5 10 10 10 6 0
10 -4 10 -10z m-70 -27 c0 -5 -4 -15 -10 -23 -11 -18 -25 -7 -17 15 6 15 27
21 27 8z m665 -38 c20 -24 32 -31 37 -22 5 8 8 5 9 -8 3 -47 -4 -81 -17 -88
-8 -5 -11 -13 -8 -19 4 -7 2 -8 -4 -4 -10 6 -38 -31 -35 -44 1 -3 -7 -7 -18
-7 -11 -1 -17 2 -14 7 3 6 0 7 -8 5 -9 -4 -12 -16 -9 -35 3 -24 0 -31 -19 -39
-13 -4 -23 -12 -21 -17 1 -5 -2 -9 -7 -9 -14 0 -54 -45 -47 -52 9 -9 -25 -43
-43 -43 -8 0 -30 -14 -48 -32 -33 -32 -43 -25 -21 15 7 12 12 31 12 42 1 11 8
20 16 20 9 0 15 9 14 22 0 17 7 24 28 29 29 6 37 16 42 48 3 21 14 31 34 31 9
0 16 6 14 13 -1 8 1 11 6 8 10 -6 64 28 62 39 -1 4 4 12 12 17 11 7 10 11 -2
21 -9 6 -14 20 -12 29 2 10 -3 31 -11 47 -13 26 -13 31 2 44 23 22 24 21 56
-18z m-198 -41 c4 -12 -24 -24 -69 -29 -23 -3 -28 1 -28 17 0 21 0 21 20 3 20
-18 21 -18 27 4 4 15 12 21 26 19 11 -2 22 -8 24 -14z m-137 -28 c0 -18 -5
-24 -19 -23 -17 1 -18 3 -4 24 19 29 23 29 23 -1z m-582 -6 c-7 -11 -14 -16
-16 -10 -6 16 -22 12 -22 -5 0 -8 -9 -15 -20 -15 -11 0 -20 -7 -20 -15 0 -8
-8 -15 -18 -15 -10 0 -22 -12 -29 -29 -10 -28 -9 -29 22 -33 23 -3 31 0 28 8
-3 9 3 11 19 6 60 -15 50 -57 -15 -57 -26 0 -41 6 -48 18 -12 21 -31 23 -23 2
5 -11 -1 -15 -20 -15 -31 0 -35 20 -6 27 13 3 20 14 20 28 0 12 7 28 15 35 9
7 14 19 11 26 -3 8 4 19 16 25 18 10 20 9 15 -5 -5 -12 0 -11 23 6 17 12 30
24 30 28 0 3 11 7 25 8 23 2 24 0 13 -18z m498 -11 c3 -5 -10 -16 -30 -24 -42
-18 -49 -19 -41 -5 3 6 -1 10 -9 10 -9 0 -16 -7 -16 -16 0 -13 -6 -15 -27 -9
-46 13 -68 11 -69 -5 -1 -8 -2 -18 -3 -22 -1 -10 -41 24 -41 34 0 5 8 8 17 8
10 0 35 6 58 14 79 27 100 32 128 28 15 -3 30 -8 33 -13z m34 11 c0 -5 -4 -10
-10 -10 -5 0 -10 5 -10 10 0 6 5 10 10 10 6 0 10 -4 10 -10z m-680 -37 c8 6 6
2 -4 -10 -10 -12 -16 -29 -13 -38 4 -10 0 -15 -12 -15 -11 0 -21 5 -23 12 -7
20 -60 -22 -55 -44 3 -11 0 -18 -10 -18 -8 0 -28 -8 -44 -17 -23 -14 -31 -15
-41 -4 -11 10 -8 17 15 36 15 13 34 22 41 19 11 -4 13 0 9 16 -5 20 -3 22 26
15 27 -6 31 -4 31 15 0 16 4 20 15 16 9 -3 18 1 22 9 4 11 9 12 17 5 9 -6 17
-6 26 3z m390 -11 c0 -9 -35 -62 -41 -62 -4 0 -5 9 -2 20 7 26 -7 25 -35 -1
-14 -13 -38 -21 -65 -22 -27 -1 -41 -6 -39 -14 2 -15 -14 -17 -23 -4 -3 6 5
16 17 23 24 14 30 15 65 17 12 0 30 10 40 20 17 17 40 26 71 27 6 1 12 -1 12
-4z m-580 -76 c0 -3 -4 -8 -10 -11 -5 -3 -10 -1 -10 4 0 6 5 11 10 11 6 0 10
-2 10 -4z m950 -184 c13 -12 16 -22 10 -32 -5 -8 -10 -27 -10 -42 0 -17 -5
-27 -12 -25 -7 1 -12 -4 -10 -11 1 -8 -2 -11 -7 -8 -5 4 -12 2 -16 -4 -4 -6
-10 -8 -14 -6 -10 7 -40 -63 -45 -103 -3 -27 -1 -32 14 -28 13 3 16 0 13 -14
-3 -10 -9 -16 -14 -13 -5 3 -9 -9 -9 -25 0 -21 -5 -31 -15 -31 -9 0 -15 9 -15
21 0 18 -2 19 -15 9 -9 -7 -18 -10 -22 -7 -3 4 -11 3 -17 -2 -7 -6 -18 -4 -30
4 -25 18 -28 93 -5 115 9 8 16 22 17 30 3 43 19 73 33 64 6 -3 8 -13 4 -21 -5
-13 -3 -14 10 -3 9 7 14 22 13 34 -2 14 2 20 11 18 29 -6 73 10 67 24 -4 9 2
14 16 14 16 0 19 3 11 11 -9 9 -9 16 0 30 14 23 13 23 37 1z m-20 -293 c0 -5
-7 -9 -16 -9 -8 0 -12 -4 -9 -10 7 -11 -8 -14 -18 -4 -11 12 13 43 28 38 8 -4
15 -10 15 -15z"/>
<path d="M1460 1369 c0 -5 5 -7 10 -4 6 3 10 8 10 11 0 2 -4 4 -10 4 -5 0 -10
-5 -10 -11z"/>
</g>
</svg>
