<?xml version="1.0" standalone="no"?>
<!DOCTYPE svg PUBLIC "-//W3C//DTD SVG 20010904//EN"
 "http://www.w3.org/TR/2001/REC-SVG-20010904/DTD/svg10.dtd">
<svg version="1.0" xmlns="http://www.w3.org/2000/svg"
 width="270.000000pt" height="270.000000pt" viewBox="0 0 270.000000 270.000000"
 preserveAspectRatio="xMidYMid meet">

<g transform="translate(0.000000,270.000000) scale(0.100000,-0.100000)"
fill="#000000" stroke="none">
<path d="M0 1350 l0 -1350 1350 0 1350 0 0 1350 0 1350 -1350 0 -1350 0 0
-1350z m1733 414 c5 -30 -14 -28 -28 4 -5 12 -14 22 -20 22 -5 0 -3 4 5 10 19
12 36 -3 43 -36z m-36 -11 c2 -5 -3 -15 -10 -21 -11 -9 -16 -7 -24 11 -10 21
-8 23 10 22 11 -1 22 -6 24 -12z m-327 -233 c0 -5 -4 -10 -10 -10 -5 0 -10 5
-10 10 0 6 5 10 10 10 6 0 10 -4 10 -10z m325 -166 c16 -25 13 -90 -4 -79 -5
2 -13 -7 -19 -20 -7 -14 -19 -25 -28 -25 -10 0 -14 -3 -11 -7 8 -7 -38 -33
-58 -33 -7 0 -15 -5 -17 -11 -6 -17 -57 84 -55 109 1 15 8 22 24 23 46 3 90
26 96 50 8 29 51 24 72 -7z m-619 -39 c-3 -8 -1 -15 4 -15 6 0 5 -9 -2 -20
-14 -23 -30 -27 -22 -6 3 8 -4 16 -18 21 -19 6 -20 8 -5 12 9 2 17 9 17 14 0
5 7 9 16 9 10 0 14 -6 10 -15z m394 -30 c0 -5 -5 -3 -10 5 -5 8 -10 20 -10 25
0 6 5 3 10 -5 5 -8 10 -19 10 -25z m-40 0 c0 -27 -6 -30 -29 -16 -12 8 -12 12
-2 25 19 23 31 20 31 -9z m-80 -20 c13 8 13 -8 -1 -22 -16 -16 -49 -4 -49 19
0 16 3 17 20 8 11 -6 25 -8 30 -5z m-140 -19 c14 -18 14 -18 -7 -6 -12 8 -19
18 -16 23 3 4 6 7 7 5 1 -2 8 -12 16 -22z m268 -21 c-2 -33 -18 -51 -18 -21 0
8 -6 16 -12 19 -10 3 -10 7 1 20 21 27 32 20 29 -18z m-223 15 c3 -5 1 -10 -4
-10 -6 0 -11 5 -11 10 0 6 2 10 4 10 3 0 8 -4 11 -10z m271 -80 c8 0 12 -5 9
-11 -4 -6 -14 -8 -22 -4 -9 3 -24 -2 -34 -11 -9 -8 -26 -17 -36 -19 -10 -1
-17 -8 -15 -15 1 -6 -2 -9 -7 -6 -11 7 -24 -22 -15 -35 6 -11 -4 -11 -31 1
-18 7 -19 8 -2 15 9 4 17 13 17 20 0 6 18 20 39 30 22 9 38 22 35 29 -2 6 6
16 18 21 17 7 24 7 26 -2 2 -7 10 -13 18 -13z m-241 -102 c0 -13 -6 -33 -13
-45 -15 -28 -15 -31 4 -35 11 -2 0 -19 -38 -58 -30 -30 -64 -63 -76 -72 -25
-20 -29 -38 -7 -38 10 0 15 -10 15 -30 0 -22 5 -30 18 -30 24 -1 49 -22 49
-43 0 -18 -43 -49 -84 -62 -16 -4 -23 -2 -23 7 0 8 -13 24 -30 36 -16 13 -30
29 -30 36 0 8 -5 16 -12 18 -8 3 -12 28 -13 66 -1 61 -1 62 25 62 15 0 37 9
50 20 13 11 17 20 10 20 -8 0 -3 10 11 23 13 13 28 23 34 23 5 -1 17 14 25 31
8 18 20 33 25 33 6 0 19 14 30 30 24 36 31 38 30 8z m75 -13 c0 -8 -43 -55
-51 -55 -4 0 -6 8 -4 18 2 9 4 20 4 24 1 3 9 9 19 11 26 7 32 7 32 2z"/>
<path d="M1650 1350 c0 -5 5 -10 10 -10 6 0 10 5 10 10 0 6 -4 10 -10 10 -5 0
-10 -4 -10 -10z"/>
<path d="M1066 781 c-3 -4 6 -13 19 -19 28 -13 32 -8 11 14 -17 16 -23 17 -30
5z"/>
</g>
</svg>
