<?xml version="1.0" standalone="no"?>
<!DOCTYPE svg PUBLIC "-//W3C//DTD SVG 20010904//EN"
 "http://www.w3.org/TR/2001/REC-SVG-20010904/DTD/svg10.dtd">
<svg version="1.0" xmlns="http://www.w3.org/2000/svg"
 width="270.000000pt" height="270.000000pt" viewBox="0 0 270.000000 270.000000"
 preserveAspectRatio="xMidYMid meet">

<g transform="translate(0.000000,270.000000) scale(0.100000,-0.100000)"
fill="#000000" stroke="none">
<path d="M0 1350 l0 -1350 1350 0 1350 0 0 1350 0 1350 -1350 0 -1350 0 0
-1350z m1455 360 c3 -5 -1 -10 -9 -10 -9 0 -16 5 -16 10 0 6 4 10 9 10 6 0 13
-4 16 -10z m-55 -21 c0 -5 5 -7 10 -4 16 10 12 -15 -5 -31 -19 -19 -55 -9 -55
15 0 10 3 21 7 24 10 11 43 8 43 -4z m-90 -75 c0 -9 -5 -14 -12 -12 -18 6 -21
28 -4 28 9 0 16 -7 16 -16z m-110 -44 c0 -5 -7 -7 -15 -4 -8 4 -15 8 -15 10 0
2 7 4 15 4 8 0 15 -4 15 -10z m790 -74 c0 -9 9 -13 25 -12 14 2 22 -1 18 -7
-4 -6 2 -8 16 -4 17 4 25 0 33 -19 13 -29 -8 -58 -49 -69 -14 -3 -32 -13 -40
-21 -9 -8 -23 -12 -34 -9 -23 8 -59 -11 -59 -31 0 -12 -7 -14 -30 -9 -26 6
-31 3 -40 -19 -5 -14 -14 -27 -20 -27 -5 -1 -14 -2 -20 -3 -5 0 -17 -8 -27
-16 -10 -9 -25 -14 -34 -12 -9 2 -31 -12 -49 -29 -27 -27 -35 -31 -51 -21 -14
9 -21 8 -33 -3 -8 -8 -20 -15 -26 -15 -6 0 -9 -4 -6 -9 9 -13 -29 -42 -47 -35
-16 6 -76 -25 -105 -53 -16 -16 -29 -17 -35 -3 -3 6 -4 5 -3 -2 4 -21 -31 -50
-61 -52 -15 -1 -34 -5 -41 -10 -7 -4 -20 -5 -28 -2 -8 3 -20 -3 -26 -14 -7
-11 -18 -20 -25 -20 -7 0 -13 -7 -13 -15 0 -8 -4 -15 -9 -15 -5 0 -17 -3 -26
-6 -13 -5 -16 -2 -13 12 2 10 -5 27 -14 36 -22 22 -23 38 -3 38 8 0 20 12 28
26 13 24 15 25 30 10 21 -22 57 -5 57 26 0 16 3 18 14 9 11 -9 16 -9 23 2 4 7
16 17 26 20 10 4 16 11 13 16 -3 5 3 11 13 14 14 3 18 1 14 -9 -6 -16 -2 -17
21 -8 9 3 16 16 16 28 0 21 4 22 62 21 41 -1 55 1 40 6 -12 5 -22 11 -22 15 0
3 7 4 15 0 8 -3 15 -2 15 3 0 4 6 8 13 9 6 0 30 5 52 11 22 6 50 8 61 5 16 -4
23 0 27 17 4 14 1 27 -6 31 -8 5 -4 8 10 8 12 0 25 -5 28 -10 5 -8 11 -7 21 1
7 6 11 15 8 20 -3 5 3 6 12 2 13 -5 15 -3 9 7 -5 9 -4 11 3 6 6 -4 21 3 32 14
12 12 28 19 36 16 19 -7 18 18 -1 34 -16 13 -30 7 -30 -12 0 -6 -5 -13 -11
-15 -9 -3 -10 8 -5 48 1 4 10 9 21 12 11 3 20 10 20 17 0 6 -5 8 -12 4 -7 -5
-8 -3 -3 5 4 7 16 11 26 8 10 -3 22 -1 25 4 3 6 15 7 26 3 16 -5 20 -3 15 9
-7 19 23 33 34 15 7 -10 12 -11 29 0 24 15 33 16 25 2 -3 -5 2 -10 13 -10 15
0 18 5 14 25 -2 15 0 25 7 25 6 0 11 -6 11 -14z m-1035 -36 c-3 -5 -13 -10
-21 -10 -8 0 -14 5 -14 10 0 6 9 10 21 10 11 0 17 -4 14 -10z m-45 -36 c0 -8
-9 -14 -20 -14 -13 0 -20 7 -20 19 0 14 5 18 20 14 11 -3 20 -12 20 -19z m774
-11 c4 -5 12 -8 17 -8 9 0 13 -14 4 -16 -18 -2 -64 14 -59 22 6 11 28 12 38 2z
m-54 -23 c0 -13 -7 -20 -19 -20 -27 0 -35 17 -14 29 26 15 33 13 33 -9z m-166
-27 c-22 -16 -25 -13 -17 15 4 18 8 20 20 10 13 -10 13 -14 -3 -25z m-448 -8
c24 0 30 -30 10 -51 -15 -14 -16 -14 -16 5 0 24 -28 29 -48 9 -9 -9 -12 -9
-12 0 0 7 4 12 9 12 5 0 13 15 17 33 6 27 8 29 14 12 4 -11 15 -20 26 -20z
m354 7 c0 -4 -9 -8 -20 -8 -11 0 -20 4 -20 8 0 4 9 8 20 8 11 0 20 -4 20 -8z
m-106 -26 c-6 -16 -24 -23 -24 -8 0 10 22 33 27 28 2 -2 1 -11 -3 -20z m-54
-260 c0 -3 -4 -8 -10 -11 -5 -3 -10 -1 -10 4 0 6 5 11 10 11 6 0 10 -2 10 -4z"/>
</g>
</svg>
